<?xml version="1.0" standalone="no"?>
<!DOCTYPE svg PUBLIC "-//W3C//DTD SVG 20010904//EN"
 "http://www.w3.org/TR/2001/REC-SVG-20010904/DTD/svg10.dtd">
<svg version="1.0" xmlns="http://www.w3.org/2000/svg"
 width="500.000000pt" height="500.000000pt" viewBox="0 0 500.000000 500.000000"
 preserveAspectRatio="xMidYMid meet">

<g transform="translate(0.000000,500.000000) scale(0.100000,-0.100000)"
fill="#000000" stroke="none">
<path d="M3965 3925 c-54 -18 -468 -148 -530 -166 -101 -29 -132 -43 -173 -83
-77 -72 -146 -260 -159 -433 l-6 -81 -36 -7 c-59 -11 -117 -41 -165 -85 -72
-67 -89 -143 -60 -278 l7 -32 -59 35 c-83 50 -211 81 -289 69 -93 -13 -133
-34 -191 -97 -61 -67 -89 -119 -100 -184 l-6 -42 -57 29 c-128 65 -369 100
-680 100 -240 0 -377 -31 -539 -124 -311 -176 -543 -575 -446 -767 21 -43 93
-100 168 -135 106 -48 215 -68 389 -68 105 -1 146 -4 143 -12 -2 -6 -19 -85
-36 -175 -18 -90 -34 -170 -36 -176 -2 -8 -20 -13 -42 -13 -45 0 -195 -36
-235 -57 -45 -23 -28 -38 41 -37 90 1 227 49 257 89 22 31 62 138 110 302 l28
92 56 7 c31 4 95 17 144 29 57 15 87 19 87 11 0 -6 -11 -105 -24 -221 -14
-115 -28 -249 -31 -297 l-7 -87 -47 -10 c-65 -14 -200 -67 -222 -87 -32 -29
-22 -37 38 -32 68 7 196 59 236 98 34 32 67 166 118 473 l33 197 53 25 c162
74 380 277 492 458 25 41 44 49 37 15 -15 -67 -67 -352 -75 -408 -5 -36 -19
-126 -30 -200 -12 -74 -21 -160 -21 -190 l0 -56 -67 -18 c-102 -27 -181 -73
-154 -90 33 -21 212 58 241 107 27 44 136 529 170 752 14 94 18 105 39 105 17
0 18 -22 24 -312 6 -311 18 -516 40 -672 l12 -81 -80 -48 c-44 -26 -91 -60
-104 -75 l-24 -27 21 -3 c30 -5 112 42 165 93 32 30 46 52 50 81 11 64 8 631
-4 841 -6 107 -8 197 -5 200 3 4 49 8 101 10 103 3 194 27 256 68 l36 24 -18
-61 c-11 -33 -22 -84 -25 -114 -6 -44 -4 -55 10 -60 30 -12 81 6 161 56 89 54
115 68 193 98 l53 21 9 -22 c5 -12 28 -67 51 -122 60 -146 248 -524 319 -643
73 -123 85 -130 231 -139 85 -5 99 -4 99 10 0 24 -57 39 -159 43 l-94 4 -42
107 c-70 182 -264 588 -352 740 l-24 41 58 33 c32 18 82 50 112 72 30 22 56
35 60 30 77 -121 372 -464 563 -657 l118 -119 104 5 c101 6 155 20 164 46 6
20 -117 15 -190 -8 l-63 -20 -18 23 c-10 12 -26 33 -35 47 -87 130 -504 605
-603 688 -46 38 -55 42 -88 36 -42 -8 -82 -24 -166 -66 -33 -17 -90 -43 -128
-58 l-67 -28 -29 62 c-17 33 -45 86 -64 117 -25 42 -35 72 -40 118 l-5 61 53
-48 c85 -78 124 -92 259 -92 241 0 541 83 581 161 24 46 -1 117 -71 200 -78
94 -231 247 -262 263 l-33 17 60 67 c94 106 221 226 279 266 87 58 101 60 344
42 254 -19 368 -20 454 -5 73 13 101 34 57 43 -15 3 -145 8 -288 11 -143 4
-296 11 -340 16 -102 11 -172 -5 -270 -64 -77 -46 -261 -222 -314 -300 -32
-47 -35 -49 -70 -42 -20 4 -70 10 -111 14 l-75 6 3 40 c2 22 16 100 32 173 33
149 78 255 121 281 15 9 69 27 121 40 247 62 461 138 525 187 43 33 42 54 -2
39z m-1011 -1636 l36 -66 -70 -47 c-38 -25 -70 -45 -70 -43 0 2 11 35 25 74
13 39 27 90 31 112 4 23 8 40 9 39 1 -2 18 -33 39 -69z m-606 -47 c2 -7 -3
-12 -12 -12 -9 0 -16 7 -16 16 0 17 22 14 28 -4z"/>
</g>
</svg>
